<?xml version="1.0" encoding="utf-8"?>
<!-- Generator: Adobe Illustrator 19.0.0, SVG Export Plug-In . SVG Version: 6.00 Build 0)  -->
<svg version="1.1" id="Lager_1" xmlns="http://www.w3.org/2000/svg" xmlns:xlink="http://www.w3.org/1999/xlink" x="0px" y="0px"
	 viewBox="0 0 541.5 541.5" style="enable-background:new 0 0 541.5 541.5;" xml:space="preserve">
<style type="text/css">
	.st0{fill:#FFFFFF;}
	.st1{fill:#009CDD;}
	.st2{fill:#EC0089;}
	.st3{fill:#F7932C;}
</style>
<g>
	<rect x="-1.5" y="-1.5" width="544.5" height="544.5"/>
	<path class="st0" d="M544.5,544.5H-3V-3h547.5V544.5z M0,541.5h541.5V0H0V541.5z"/>
</g>
<g>
	<path class="st0" d="M171.8,117c3,10.9,6,21.8,9.3,32.8c5.6,19.5,6.6,22.7,9.8,42.4c3-20.1,3.7-23.6,8.3-44.3
		c2.2-10.3,4.5-20.7,6.6-30.9H231l-25.7,101.4h-26.1c-3.2-11.2-6.2-22.4-9.5-33.5c-5.5-18.7-5.7-19.4-8.8-33.6
		c-2.6,12.5-2.9,13.5-8.6,32.9l-9.8,34.2h-26.1L90.6,117h25.3c10.9,48.1,12.1,53.4,15.1,75.4c3.7-20.1,4.7-24,10.1-44.1l8.3-31.3
		H171.8z"/>
	<path class="st0" d="M237.4,117h75v19.7h-49.7v18.4h46.4v19.3h-46.4v24.1h54.2v20h-79.4V117z"/>
	<path class="st1" d="M100.4,233.9h25.3V314h39.7v21.4h-64.9V233.9z"/>
	<path class="st2" d="M218.5,338.3c-32.2,0-50.4-24.7-50.4-54c0-27.4,17.4-53.4,50-53.4c6,0,12.4,0.9,18.5,3
		c31,10.8,33,44.5,33,51.4c0,17.5-8,33.3-19.2,42.4C240.5,335.9,229,338.3,218.5,338.3z M236,259.5c-4.3-4.6-10.9-7.5-17.8-7.5
		c-15.4,0-25.1,13.5-25.1,31.9c0,24.1,13.5,33,25.4,33c12.1,0,25-8.6,25.7-29.9C244.7,276.4,241.8,265.6,236,259.5z"/>
	<path class="st3" d="M338.1,234h27l-35.2,101.4H304L269.3,234h27l21,72.1L338.1,234z"/>
	<path class="st0" d="M371.4,234h75v19.7h-49.7v18.4h46.4v19.3h-46.4v24.1h54.2v20h-79.4V234z"/>
	<path class="st0" d="M125.5,351.1v101.4h-25.3V351.1H125.5z"/>
	<path class="st0" d="M133,350.9h78.2V371h-26.3v81.5h-25.4V371H133V350.9z"/>
	<path class="st0" d="M209.8,428.1h23v24.4h-23V428.1z"/>
</g>
</svg>
